<mxfile host="app.diagrams.net" modified="2023-12-08T12:11:53.430Z" agent="Mozilla/5.0 (Windows NT 10.0; Win64; x64) AppleWebKit/537.36 (KHTML, like Gecko) Chrome/119.0.0.0 Safari/537.36" etag="ygH_8xp-_EtzUwEokwNB" version="22.1.7" type="github">
  <diagram name="Page-1" id="929967ad-93f9-6ef4-fab6-5d389245f69c">
    <mxGraphModel dx="1434" dy="790" grid="1" gridSize="10" guides="1" tooltips="1" connect="1" arrows="1" fold="1" page="1" pageScale="1.5" pageWidth="1169" pageHeight="826" background="none" math="0" shadow="0">
      <root>
        <mxCell id="0" style=";html=1;" />
        <mxCell id="1" style=";html=1;" parent="0" />
        <mxCell id="1672d66443f91eb5-1" value="&lt;p style=&quot;margin: 0px ; margin-top: 4px ; margin-left: 10px ; text-align: left&quot;&gt;&lt;b&gt;Diagrama de Estados - Loja online&lt;/b&gt;&lt;/p&gt;" style="html=1;strokeWidth=1;shape=mxgraph.sysml.package;html=1;overflow=fill;whiteSpace=wrap;fillColor=none;gradientColor=none;fontSize=12;align=center;labelX=327.64;" parent="1" vertex="1">
          <mxGeometry x="360" y="295" width="480" height="705" as="geometry" />
        </mxCell>
        <mxCell id="X0gHqfLgkpIM83x34FGb-7" style="edgeStyle=orthogonalEdgeStyle;rounded=0;orthogonalLoop=1;jettySize=auto;html=1;exitX=1;exitY=0.5;exitDx=0;exitDy=0;entryX=0;entryY=0.5;entryDx=0;entryDy=0;" edge="1" parent="1" source="X0gHqfLgkpIM83x34FGb-1" target="X0gHqfLgkpIM83x34FGb-2">
          <mxGeometry relative="1" as="geometry" />
        </mxCell>
        <mxCell id="X0gHqfLgkpIM83x34FGb-8" value="Fazer login" style="edgeLabel;html=1;align=center;verticalAlign=middle;resizable=0;points=[];" vertex="1" connectable="0" parent="X0gHqfLgkpIM83x34FGb-7">
          <mxGeometry x="-0.1333" y="-2" relative="1" as="geometry">
            <mxPoint as="offset" />
          </mxGeometry>
        </mxCell>
        <mxCell id="X0gHqfLgkpIM83x34FGb-1" value="" style="ellipse;whiteSpace=wrap;html=1;rounded=0;shadow=0;comic=0;labelBackgroundColor=none;strokeWidth=1;fillColor=#000000;fontFamily=Verdana;fontSize=12;align=center;" vertex="1" parent="1">
          <mxGeometry x="450" y="360" width="40" height="40" as="geometry" />
        </mxCell>
        <mxCell id="X0gHqfLgkpIM83x34FGb-10" style="edgeStyle=orthogonalEdgeStyle;rounded=0;orthogonalLoop=1;jettySize=auto;html=1;exitX=1;exitY=0.5;exitDx=0;exitDy=0;entryX=1;entryY=0.5;entryDx=0;entryDy=0;" edge="1" parent="1" source="X0gHqfLgkpIM83x34FGb-2" target="X0gHqfLgkpIM83x34FGb-22">
          <mxGeometry relative="1" as="geometry">
            <mxPoint x="655" y="490" as="targetPoint" />
          </mxGeometry>
        </mxCell>
        <mxCell id="X0gHqfLgkpIM83x34FGb-11" value="Selecionar produto" style="edgeLabel;html=1;align=center;verticalAlign=middle;resizable=0;points=[];" vertex="1" connectable="0" parent="X0gHqfLgkpIM83x34FGb-10">
          <mxGeometry x="0.1692" y="-2" relative="1" as="geometry">
            <mxPoint x="2" y="-26" as="offset" />
          </mxGeometry>
        </mxCell>
        <mxCell id="X0gHqfLgkpIM83x34FGb-2" value="Página Inicial" style="html=1;whiteSpace=wrap;" vertex="1" parent="1">
          <mxGeometry x="600" y="355" width="110" height="50" as="geometry" />
        </mxCell>
        <mxCell id="X0gHqfLgkpIM83x34FGb-34" style="edgeStyle=orthogonalEdgeStyle;rounded=0;orthogonalLoop=1;jettySize=auto;html=1;entryX=1;entryY=0.5;entryDx=0;entryDy=0;exitX=1;exitY=0.5;exitDx=0;exitDy=0;" edge="1" parent="1" source="X0gHqfLgkpIM83x34FGb-12" target="X0gHqfLgkpIM83x34FGb-33">
          <mxGeometry relative="1" as="geometry" />
        </mxCell>
        <mxCell id="X0gHqfLgkpIM83x34FGb-35" value="Validar pagamento" style="edgeLabel;html=1;align=center;verticalAlign=middle;resizable=0;points=[];" vertex="1" connectable="0" parent="X0gHqfLgkpIM83x34FGb-34">
          <mxGeometry x="-0.2" relative="1" as="geometry">
            <mxPoint y="7" as="offset" />
          </mxGeometry>
        </mxCell>
        <mxCell id="X0gHqfLgkpIM83x34FGb-12" value="Pedido pendente" style="html=1;whiteSpace=wrap;" vertex="1" parent="1">
          <mxGeometry x="600" y="540" width="110" height="50" as="geometry" />
        </mxCell>
        <mxCell id="X0gHqfLgkpIM83x34FGb-39" style="edgeStyle=orthogonalEdgeStyle;rounded=0;orthogonalLoop=1;jettySize=auto;html=1;entryX=0.5;entryY=0;entryDx=0;entryDy=0;" edge="1" parent="1" source="X0gHqfLgkpIM83x34FGb-13" target="X0gHqfLgkpIM83x34FGb-14">
          <mxGeometry relative="1" as="geometry" />
        </mxCell>
        <mxCell id="X0gHqfLgkpIM83x34FGb-42" value="Confirmar pedido" style="edgeLabel;html=1;align=center;verticalAlign=middle;resizable=0;points=[];" vertex="1" connectable="0" parent="X0gHqfLgkpIM83x34FGb-39">
          <mxGeometry x="-0.55" y="2" relative="1" as="geometry">
            <mxPoint x="-2" y="11" as="offset" />
          </mxGeometry>
        </mxCell>
        <mxCell id="X0gHqfLgkpIM83x34FGb-13" value="Pedido em processamento" style="html=1;whiteSpace=wrap;" vertex="1" parent="1">
          <mxGeometry x="600" y="740" width="110" height="50" as="geometry" />
        </mxCell>
        <mxCell id="X0gHqfLgkpIM83x34FGb-40" style="edgeStyle=orthogonalEdgeStyle;rounded=0;orthogonalLoop=1;jettySize=auto;html=1;entryX=0.5;entryY=0;entryDx=0;entryDy=0;" edge="1" parent="1" source="X0gHqfLgkpIM83x34FGb-14" target="X0gHqfLgkpIM83x34FGb-16">
          <mxGeometry relative="1" as="geometry" />
        </mxCell>
        <mxCell id="X0gHqfLgkpIM83x34FGb-43" value="Transportar pedido" style="edgeLabel;html=1;align=center;verticalAlign=middle;resizable=0;points=[];" vertex="1" connectable="0" parent="X0gHqfLgkpIM83x34FGb-40">
          <mxGeometry x="-0.1" relative="1" as="geometry">
            <mxPoint as="offset" />
          </mxGeometry>
        </mxCell>
        <mxCell id="X0gHqfLgkpIM83x34FGb-14" value="Pedido enviado" style="html=1;whiteSpace=wrap;" vertex="1" parent="1">
          <mxGeometry x="600" y="830" width="110" height="50" as="geometry" />
        </mxCell>
        <mxCell id="X0gHqfLgkpIM83x34FGb-16" value="Pedido entregue" style="html=1;whiteSpace=wrap;" vertex="1" parent="1">
          <mxGeometry x="600" y="920" width="110" height="50" as="geometry" />
        </mxCell>
        <mxCell id="X0gHqfLgkpIM83x34FGb-31" style="edgeStyle=orthogonalEdgeStyle;rounded=0;orthogonalLoop=1;jettySize=auto;html=1;entryX=0.5;entryY=0;entryDx=0;entryDy=0;" edge="1" parent="1" source="X0gHqfLgkpIM83x34FGb-22" target="X0gHqfLgkpIM83x34FGb-12">
          <mxGeometry relative="1" as="geometry">
            <mxPoint x="822" y="515" as="targetPoint" />
          </mxGeometry>
        </mxCell>
        <mxCell id="X0gHqfLgkpIM83x34FGb-32" value="Produto disponível" style="edgeLabel;html=1;align=center;verticalAlign=middle;resizable=0;points=[];" vertex="1" connectable="0" parent="X0gHqfLgkpIM83x34FGb-31">
          <mxGeometry x="0.1091" y="-3" relative="1" as="geometry">
            <mxPoint x="3" y="-3" as="offset" />
          </mxGeometry>
        </mxCell>
        <mxCell id="X0gHqfLgkpIM83x34FGb-45" style="edgeStyle=orthogonalEdgeStyle;rounded=0;orthogonalLoop=1;jettySize=auto;html=1;entryX=0;entryY=0.75;entryDx=0;entryDy=0;exitX=0;exitY=0.5;exitDx=0;exitDy=0;" edge="1" parent="1" source="X0gHqfLgkpIM83x34FGb-22" target="X0gHqfLgkpIM83x34FGb-2">
          <mxGeometry relative="1" as="geometry" />
        </mxCell>
        <mxCell id="X0gHqfLgkpIM83x34FGb-46" value="Produto fora de estoque" style="edgeLabel;html=1;align=center;verticalAlign=middle;resizable=0;points=[];" vertex="1" connectable="0" parent="X0gHqfLgkpIM83x34FGb-45">
          <mxGeometry x="-0.0164" relative="1" as="geometry">
            <mxPoint y="-20" as="offset" />
          </mxGeometry>
        </mxCell>
        <mxCell id="X0gHqfLgkpIM83x34FGb-22" value="" style="rhombus;whiteSpace=wrap;html=1;" vertex="1" parent="1">
          <mxGeometry x="630" y="450" width="50" height="50" as="geometry" />
        </mxCell>
        <mxCell id="X0gHqfLgkpIM83x34FGb-38" style="edgeStyle=orthogonalEdgeStyle;rounded=0;orthogonalLoop=1;jettySize=auto;html=1;entryX=0.5;entryY=0;entryDx=0;entryDy=0;" edge="1" parent="1" source="X0gHqfLgkpIM83x34FGb-33" target="X0gHqfLgkpIM83x34FGb-13">
          <mxGeometry relative="1" as="geometry" />
        </mxCell>
        <mxCell id="X0gHqfLgkpIM83x34FGb-44" value="Pagamento confirmado" style="edgeLabel;html=1;align=center;verticalAlign=middle;resizable=0;points=[];" vertex="1" connectable="0" parent="X0gHqfLgkpIM83x34FGb-38">
          <mxGeometry relative="1" as="geometry">
            <mxPoint x="-5" y="-5" as="offset" />
          </mxGeometry>
        </mxCell>
        <mxCell id="X0gHqfLgkpIM83x34FGb-47" style="edgeStyle=orthogonalEdgeStyle;rounded=0;orthogonalLoop=1;jettySize=auto;html=1;entryX=0;entryY=0.5;entryDx=0;entryDy=0;exitX=0;exitY=0.5;exitDx=0;exitDy=0;" edge="1" parent="1" source="X0gHqfLgkpIM83x34FGb-33" target="X0gHqfLgkpIM83x34FGb-12">
          <mxGeometry relative="1" as="geometry" />
        </mxCell>
        <mxCell id="X0gHqfLgkpIM83x34FGb-48" value="Pagamento não confirmado" style="edgeLabel;html=1;align=center;verticalAlign=middle;resizable=0;points=[];" vertex="1" connectable="0" parent="X0gHqfLgkpIM83x34FGb-47">
          <mxGeometry x="0.181" y="-1" relative="1" as="geometry">
            <mxPoint x="-1" y="5" as="offset" />
          </mxGeometry>
        </mxCell>
        <mxCell id="X0gHqfLgkpIM83x34FGb-33" value="" style="rhombus;whiteSpace=wrap;html=1;" vertex="1" parent="1">
          <mxGeometry x="630" y="640" width="50" height="50" as="geometry" />
        </mxCell>
      </root>
    </mxGraphModel>
  </diagram>
</mxfile>
